<?xml version="1.0" encoding="UTF-8"?>
<svg version="1.1" xmlns="http://www.w3.org/2000/svg" width="256" height="256">
<path d="M0 0 C84.48 0 168.96 0 256 0 C256 84.48 256 168.96 256 256 C171.52 256 87.04 256 0 256 C0 171.52 0 87.04 0 0 Z " fill="#FDFDFD" transform="translate(0,0)"/>
<path d="M0 0 C0 20.79 0 41.58 0 63 C4.60839844 62.98839844 9.21679688 62.97679687 13.96484375 62.96484375 C16.87695452 62.95973679 19.78905981 62.954923 22.70117188 62.95117188 C27.3277297 62.94518421 31.95426782 62.93808596 36.58081055 62.92456055 C40.30903401 62.913729 44.03723634 62.9077226 47.76547432 62.90512276 C49.19089656 62.90326899 50.61631759 62.89964929 52.04173088 62.89426994 C54.03163408 62.88705607 56.02155834 62.88659192 58.01147461 62.88647461 C59.14620712 62.884254 60.28093964 62.88203339 61.45005798 62.87974548 C64 63 64 63 65 64 C66.97285643 78.5538589 59.96397372 94.37551755 51.8984375 106.0390625 C41.65755488 119.17489427 27.32808575 128.71198528 10.74609375 131.55859375 C-7.93051718 133.75927888 -24.65960006 130.65449793 -40.26953125 119.70703125 C-51.21884687 111.04398783 -57.87049821 100.89566337 -63 88 C-63.34160156 87.17628906 -63.68320313 86.35257812 -64.03515625 85.50390625 C-69.29022524 70.2275429 -66.83312088 52.15032506 -60.5625 37.68359375 C-52.06306644 20.37825666 -37.31829456 8.3962174 -19.25 2.03125 C-12.28379729 -0.10610765 -7.91930339 0 0 0 Z " fill="#2B425D" transform="translate(166,84)"/>
<path d="M0 0 C36.63 0 73.26 0 111 0 C111 9.9 111 19.8 111 30 C109.32664004 31.67335996 107.28612091 31.11962895 105.05252075 31.12442017 C104.3454599 31.12082489 103.63839905 31.11722961 102.90991211 31.11352539 C102.16849472 31.11367142 101.42707733 31.11381744 100.66319275 31.1139679 C98.20121379 31.11326865 95.73930957 31.10547574 93.27734375 31.09765625 C91.57483461 31.09579211 89.87232493 31.09436819 88.16981506 31.09336853 C83.68006927 31.08954302 79.19035562 31.07971247 74.70062256 31.06866455 C69.31836359 31.05665668 63.9360939 31.05204835 58.55382538 31.04621124 C50.36919454 31.03650072 42.18463428 31.01734441 34 31 C34 43.54 34 56.08 34 69 C52.81 69 71.62 69 91 69 C91 75.96133404 90.32686332 77.83013417 86.3125 82.8125 C81.96006986 88.33847427 79.25222977 93.49554046 76 100 C62.14 100 48.28 100 34 100 C34 122.44 34 144.88 34 168 C22.78 168 11.56 168 0 168 C0 112.56 0 57.12 0 0 Z " fill="#2C425E" transform="translate(21,23)"/>
<path d="M0 0 C19.84622123 1.80420193 36.32256525 7.96917591 50 23 C60.83459346 36.83980916 66 51.38217609 66 69 C44.22 69 22.44 69 0 69 C0 46.23 0 23.46 0 0 Z " fill="#2B425D" transform="translate(174,70)"/>
</svg>
